/* XPM */
static char * blink_icon_xpm[] = {
"48 48 307 2",
"  	c None",
". 	c #4E9BFF",
"+ 	c #509BFF",
"@ 	c #4F9CFF",
"# 	c #519FFF",
"$ 	c #519CFF",
"% 	c #569BFF",
"& 	c #519BFF",
"* 	c #6BACFF",
"= 	c #ADD2FF",
"- 	c #BBD8FF",
"; 	c #BAD8FF",
"> 	c #BAD7FF",
", 	c #B9D6FF",
"' 	c #A8CEFF",
") 	c #65A7FF",
"! 	c #529DFF",
"~ 	c #46A2FF",
"{ 	c #57A1FF",
"] 	c #C0DAFF",
"^ 	c #FDFEFF",
"/ 	c #FFFFFF",
"( 	c #FAFCFF",
"_ 	c #B5D5FF",
": 	c #539EFF",
"< 	c #4D99FF",
"[ 	c #51A0FF",
"} 	c #C7DEFF",
"| 	c #FEFFFF",
"1 	c #D6E6FF",
"2 	c #C9E0FF",
"3 	c #CAE1FF",
"4 	c #CBE1FF",
"5 	c #CAE0FF",
"6 	c #CCE2FF",
"7 	c #DAEAFF",
"8 	c #FEFEFF",
"9 	c #B5D4FF",
"0 	c #53A0FF",
"a 	c #50A0FF",
"b 	c #79B1FF",
"c 	c #96C1FF",
"d 	c #66A7FF",
"e 	c #67A8FF",
"f 	c #6AA8FF",
"g 	c #6BAAFF",
"h 	c #6CABFF",
"i 	c #6DABFF",
"j 	c #6FADFF",
"k 	c #70ADFF",
"l 	c #71AEFF",
"m 	c #72AEFF",
"n 	c #73AEFF",
"o 	c #73B0FF",
"p 	c #71ACFF",
"q 	c #6EACFF",
"r 	c #6BA9FF",
"s 	c #6AAAFF",
"t 	c #69A8FF",
"u 	c #A6CBFF",
"v 	c #FBFDFF",
"w 	c #64A7FF",
"x 	c #509EFF",
"y 	c #BAD6FF",
"z 	c #66A6FF",
"A 	c #74AFFF",
"B 	c #75B0FF",
"C 	c #75AFFF",
"D 	c #76B1FF",
"E 	c #74B0FF",
"F 	c #529BFF",
"G 	c #CDE4FF",
"H 	c #B9D7FF",
"I 	c #69A9FF",
"J 	c #E1EDFF",
"K 	c #E1EEFF",
"L 	c #E0EDFF",
"M 	c #E2EEFF",
"N 	c #77B1FF",
"O 	c #ACD1FF",
"P 	c #AED1FF",
"Q 	c #77B3FF",
"R 	c #CADFFF",
"S 	c #BBD7FF",
"T 	c #549CFF",
"U 	c #CDE3FF",
"V 	c #7AB4FF",
"W 	c #AED0FF",
"X 	c #79B2FF",
"Y 	c #79B3FF",
"Z 	c #78B2FF",
"` 	c #BCD8FF",
" .	c #4F9FFF",
"..	c #7DB6FF",
"+.	c #B0D2FF",
"@.	c #B0D3FF",
"#.	c #7CB4FF",
"$.	c #7BB4FF",
"%.	c #CBE2FF",
"&.	c #BCD9FF",
"*.	c #CEE3FF",
"=.	c #BBD9FF",
"-.	c #E2EFFF",
";.	c #80B7FF",
">.	c #B2D3FF",
",.	c #B2D5FF",
"'.	c #7FB7FF",
").	c #7EB6FF",
"!.	c #7DB5FF",
"~.	c #7AB3FF",
"{.	c #CFE4FF",
"].	c #E3F0FF",
"^.	c #82B8FF",
"/.	c #B3D5FF",
"(.	c #B3D4FF",
"_.	c #B4D4FF",
":.	c #83B9FF",
"<.	c #81B9FF",
"[.	c #85BAFF",
"}.	c #B4D5FF",
"|.	c #84B9FF",
"1.	c #81B7FF",
"2.	c #CDE2FF",
"3.	c #CFE3FF",
"4.	c #BED9FF",
"5.	c #E4F0FF",
"6.	c #87BCFF",
"7.	c #B5D6FF",
"8.	c #86BBFF",
"9.	c #7EB5FF",
"0.	c #CEE4FF",
"a.	c #BEDAFF",
"b.	c #549EFF",
"c.	c #BDDAFF",
"d.	c #E2F0FF",
"e.	c #89BDFF",
"f.	c #B6D7FF",
"g.	c #B6D6FF",
"h.	c #8ABEFF",
"i.	c #89BEFF",
"j.	c #88BCFF",
"k.	c #BDD9FF",
"l.	c #D0E4FF",
"m.	c #E5F1FF",
"n.	c #8BBFFF",
"o.	c #B8D7FF",
"p.	c #B8D8FF",
"q.	c #8DBFFF",
"r.	c #8CBFFF",
"s.	c #8BBDFF",
"t.	c #7FB5FF",
"u.	c #BFDAFF",
"v.	c #8DC0FF",
"w.	c #8DC1FF",
"x.	c #8EC0FF",
"y.	c #8FC1FF",
"z.	c #90C1FF",
"A.	c #C0DBFF",
"B.	c #F1F8FF",
"C.	c #F2F8FF",
"D.	c #F2F9FF",
"E.	c #F3F8FF",
"F.	c #91C3FF",
"G.	c #D1E6FF",
"H.	c #D0E5FF",
"I.	c #D1E5FF",
"J.	c #91C2FF",
"K.	c #B9D8FF",
"L.	c #BAD9FF",
"M.	c #B7D7FF",
"N.	c #C0DDFF",
"O.	c #93C2FF",
"P.	c #BADAFF",
"Q.	c #F3F9FF",
"R.	c #95C5FF",
"S.	c #D2E6FF",
"T.	c #D3E6FF",
"U.	c #D2E7FF",
"V.	c #94C4FF",
"W.	c #D1E4FF",
"X.	c #C2DCFF",
"Y.	c #F4F9FF",
"Z.	c #97C6FF",
"`.	c #D3E7FF",
" +	c #BCDBFF",
".+	c #C0DCFF",
"++	c #C3DDFF",
"@+	c #98C6FF",
"#+	c #D4E7FF",
"$+	c #9AC8FF",
"%+	c #BEDBFF",
"&+	c #BDDBFF",
"*+	c #BBDBFF",
"=+	c #D2E5FF",
"-+	c #C2DDFF",
";+	c #9BC8FF",
">+	c #D4E8FF",
",+	c #9CCAFF",
"'+	c #BEDCFF",
")+	c #BFDCFF",
"!+	c #9DC9FF",
"~+	c #D5E9FF",
"{+	c #D4E9FF",
"]+	c #9DCAFF",
"^+	c #BFDBFF",
"/+	c #C4DEFF",
"(+	c #9FCCFF",
"_+	c #D6E9FF",
":+	c #9FCBFF",
"<+	c #C5DEFF",
"[+	c #A1CCFF",
"}+	c #D7EAFF",
"|+	c #C1DEFF",
"1+	c #C2DEFF",
"2+	c #C0DEFF",
"3+	c #92C3FF",
"4+	c #C5DFFF",
"5+	c #92C2FF",
"6+	c #96C6FF",
"7+	c #99C7FF",
"8+	c #9FCAFF",
"9+	c #A0CDFF",
"0+	c #A2CDFF",
"a+	c #A3CDFF",
"b+	c #A4CEFF",
"c+	c #A5CFFF",
"d+	c #A6CFFF",
"e+	c #A0CCFF",
"f+	c #9BC9FF",
"g+	c #98C8FF",
"h+	c #96C5FF",
"i+	c #C4DFFF",
"j+	c #E8F2FF",
"k+	c #E8F3FF",
"l+	c #E7F2FF",
"m+	c #E6F1FF",
"n+	c #E6F2FF",
"o+	c #93C4FF",
"p+	c #C6DFFF",
"q+	c #F5F9FF",
"r+	c #F5FAFF",
"s+	c #C6E0FF",
"t+	c #A7CFFF",
"u+	c #A7D0FF",
"v+	c #539CFF",
"w+	c #A8D1FF",
"x+	c #E9F3FF",
"y+	c #96C4FF",
"z+	c #A9D1FF",
"A+	c #F6FAFF",
"B+	c #AAD2FF",
"C+	c #E9F2FF",
"D+	c #D5E7FF",
"E+	c #ABD2FF",
"F+	c #D5E8FF",
"G+	c #519DFF",
"H+	c #A7D1FF",
"I+	c #ADD4FF",
"J+	c #AED5FF",
"K+	c #AFD5FF",
"L+	c #B0D6FF",
"M+	c #AFD6FF",
"N+	c #ABD3FF",
"O+	c #A9D2FF",
"P+	c #A6D0FF",
"Q+	c #A3CEFF",
"R+	c #509FFF",
"S+	c #54A0FF",
"T+	c #9ECAFF",
"U+	c #A2CEFF",
"V+	c #AED4FF",
"W+	c #ACD4FF",
"X+	c #DEEDFF",
"Y+	c #529CFF",
"Z+	c #509AFF",
"`+	c #B2D4FF",
" @	c #6DAEFF",
".@	c #569FFF",
"+@	c #D7E8FF",
"@@	c #D4E6FF",
"#@	c #C8E0FF",
"$@	c #C9E2FF",
"%@	c #CBE3FF",
"&@	c #CDE5FF",
"*@	c #CEE5FF",
"=@	c #CFE6FF",
"-@	c #CFE5FF",
";@	c #D0E6FF",
">@	c #CCE4FF",
",@	c #CAE2FF",
"'@	c #C9E1FF",
")@	c #D9EBFF",
"!@	c #C8DFFF",
"~@	c #5FA3FF",
"{@	c #D7E9FF",
"]@	c #59A3FF",
"^@	c #56A1FF",
"/@	c #D6E8FF",
"(@	c #D7E7FF",
"_@	c #D8EAFF",
":@	c #D8E9FF",
"<@	c #C1DBFF",
"[@	c #7AB5FF",
"}@	c #54A1FF",
"|@	c #569EFF",
"1@	c #55A1FF",
"2@	c #529FFF",
"                                                                                                ",
"                                                                                                ",
"                                                                                                ",
"              . + @ @ @ @ @ @ @ @ @ @ @ @ @ @ @ @ @ @ @ @ @ @ @ @ @ @ @ @ @ # $ %               ",
"          % & * = - ; ; > ; ; ; ; ; ; - - - - - - - - - - - - ; ; ; ; ; > ; , ' ) ! ~           ",
"        % { ] ^ / / / / / / / / / / / / / / / / / / / / / / / / / / / / / / / / ( _ : <         ",
"        [ } / | 1 2 2 2 3 3 4 5 4 4 4 6 4 4 4 4 4 4 4 4 4 6 4 4 4 5 4 3 3 2 2 7 8 / 9 0         ",
"      a b 8 ^ c ) d e f g h i j k k l m m n n n o n n n m m l p k q i h r s t d u 8 v w a       ",
"      x y / 6 z e f g h i k p m n o A B C C D D D D D D C B E A n m p k j i r s t 7 / ' F       ",
"      x G / H I g h J K L J K K M M K N O P P P P P P P P Q N D D B A n m k q i r R / S #       ",
"      T U / , h i k L J K M M K M M M V W P P P P P P P W V X Y Z N D C E n m k j 4 / `  .      ",
"      T U / > q p m K M M K M M J K M ..+.+.+.@.@.@.@.+.+...#.#.$.V Y Z N D E n l %./ &. .      ",
"      T *./ =.l o B M K M M K M M -.M ;.>.>.>.,.,.,.>.>.>.;.'.).!...$.~.X Z N C A 4 / &. .      ",
"      T {./ &.A D N M M K M M M M M ].^./.(._._._._._._.(.:.^.<.;.'.)...#.~.Y Q D 6 / &. .      ",
"      T {./ &.D Q X K M M M M ].].].-.[.}.}._ _ _ _ _ }.}.[.[.|.^.^.1.;.)...$.V Z 2./ &. .      ",
"      T 3./ 4.Z V #.M M M ].].].-.5.5.6._ 7.7.7.7.7.7.7._ 6.8.6.8.[.^.^.1.'.9.#.~.0./ a. .      ",
"      b.{./ c.~.#.9.M d.].].5.5.5.5.5.e.f.g.f.f.f.f.f.g.f.h.i.j.6.6.[.[.^.^.;.)...*./ k. .      ",
"      b.l./ a.#.).;.].].-.5.5.5.5.5.m.n.o.o.o.p.p.p.p.o.o.q.r.s.h.i.6.6.8.|.:.1.t.l./ a. .      ",
"      b.{./ u.).;.^.|.[.8.j.e.s.n.v.w.x.y.y.z.z.z.z.z.z.y.x.y.q.n.n.h.j.6.6.[.^.<.{./ a. .      ",
"      b.{./ A.1.:.[.B.B.B.C.C.D.D.B.E.F.G.H.I.G.G.G.I.H.G.J.K.L.o.o.M.g.f._ _ [.^.{./ u. .      ",
"      b.{./ N.:.[.6.B.B.C.C.D.B.E.E.E.O.G.G.G.G.G.G.G.G.G.O.P.L.L.L.K.o.o.f.7.6.[.{./ a. .      ",
"      b.{./ A.[.6.6.B.C.D.B.E.E.E.Q.Q.R.S.G.G.G.T.G.G.G.U.V.=.=.P.L.K.L.o.M.f.j.6.H./ ]  .      ",
"      b.W./ X.[.6.e.C.D.B.E.E.E.Q.Y.E.Z.`.`.T.T.T.T.T.T.`.Z.c. +=.=.L.L.L.p.M.h.j.H./ .+ .      ",
"      b.G./ ++6.e.n.D.B.E.E.Q.Y.Y.E.Q.@+`.#+`.`.`.`.`.#+#+$+%+&+c.*+=.P.K.L.p.n.h.=+/ A. .      ",
"      b.G./ -+j.s.v.B.E.E.Q.Y.E.E.Q.Y.;+#+>+#+#+#+#+#+>+#+,+'+)+&+%+ +=.P.K.L.q.r.S./ A. .      ",
"      b.W./ ++h.n.y.E.E.Q.Y.E.Q.Q.Y.Y.!+#+~+>+>+>+>+>+~+{+]+^+^+'+%+&+ +=.P.L.y.v.S./ ^+ .      ",
"      b.G./ /+r.w.z.E.Q.Y.E.Q.Y.Y.Y.E.(+{+_+_+~+_+_+~+_+_+:+N.N.^+'+%+&+ +=.L.z.y.S./ A. .      ",
"      b.G./ <+q.y.J.E.Y.E.Q.Y.Y.E.Q.Y.[+_+_+}+_+_+_+_+_+_+[+|+1+2+^+'+%+%+*+=.3+y.S./ A. .      ",
"      b.G./ 4+w.z.5+V.6+@+7+;+!+8+(+9+0+a+b+c+c+d+c+c+b+b+0+0+e+:+]+f+$+g+h+V.3+F.S./ .+ .      ",
"      b.S./ i+x.J.O./ / / / / / / / / a+Y.Y.Y.Y.Y.Y.Y.Y.Y.b+j+k+j+l+m+n+m+m.m.o+3+`./ A. .      ",
"      b.I./ p+y.J.o+/ / / / / / / / / d+Y.Y.q+r+r+r+r+Y.Y.c+j+j+j+n+l+m+n+m+m+V.3+S./ A. .      ",
"      b.G./ s+z.3+V./ / / / / / / / / t+q+r+r+Y.Y.Y.r+r+q+u+j+j+j+j+m+n+l+m+m.V.O.#+/ A. .      ",
"      v+G./ p+F.O.V./ / / / / / / / / w+r+Y.Y.Y.r+Y.Y.Y.r+w+x+x+j+k+j+l+m+n+m.6+o+#+/ A. .      ",
"      v+S./ p+3+o+y+/ / / / / / / / / z+Y.Y.r+r+r+r+r+Y.Y.z+x+j+j+l+j+l+m+n+m+h+V.#+/ A. .      ",
"      v+S./ p+3+o+6+/ / / / / / / / / z+Y.r+r+r+A+r+r+r+Y.B+j+C+x+j+j+m+m+n+m+6+V.D+/ A. .      ",
"      v+S./ p+J.V.h+/ / / / / / / / / B+Y.r+r+q+r+r+r+r+Y.E+j+x+x+j+j+m+n+n+m+6+R.F+/ A. .      ",
"      v+S./ p+J.V.h+/ / / / / / / / / B+Y.r+r+r+r+r+A+r+r+E+j+x+x+j+j+m+n+n+m+Z.R.F+/ A. .      ",
"      v+S./ p+J.V.6+/ / / / / / / / / B+Y.r+r+A+r+q+r+r+Y.B+j+x+x+j+j+m+n+n+m+6+V.F+/ A. .      ",
"      G+S./ p+3+o+6+g+$+!+8+e+0+b+d+H+z+E+I+J+K+L+M+K+I+N+O+w+P+c+Q+[+:+!+;+@+6+V.D+/ X.R+      ",
"      S+i+/ U.J.o+y+@+7+f+T+(+U+b+d+u+z+B+N+I+I+V+I+I+W+B+B+H+c+b+0+e+8+]+$+g+h+V.X+/ (.Y+      ",
"      Z+6./ v t+O.R.Z.$+;+]+:+9+Q+b+d+H+z+B+E+N+W+W+N+B+B+w+P+c+b+0+(+T+f+7+@+y+`+8 ^  @        ",
"        .@+@/ v @@s+#@$@$@%.%@6 &@*@G *@=@-@-@H.H.H.-@-@;@{.G G >@>@%@,@'@$@$@)@8 / !@{         ",
"          ~@{@/ / / / / / / / / / / / / / / / / / / / / / / / / / / / / / / / / | U ]@          ",
"            ^@6.4+#+D+/@D+/@(@{@{@{@{@_@{@{@:@:@:@:@:@{@{@{@{@{@{@{@{@D+D+/@@@<@[@}@            ",
"                [ |@1@1@1@1@1@1@1@1@1@{ .@.@.@.@.@.@.@.@.@.@1@1@1@1@1@1@1@1@}@2@                ",
"                                                                                                ",
"                                                                                                ",
"                                                                                                "};
